<svg width="28" height="28" viewBox="0 0 28 28" fill="none" xmlns="http://www.w3.org/2000/svg">
<path fill-rule="evenodd" clip-rule="evenodd" d="M4.30278 14.105C4.27818 14.065 4.25788 14.03 4.24134 14C4.25788 13.97 4.27818 13.935 4.30278 13.895C4.41658 13.7099 4.59551 13.4604 4.83856 13.1656C5.32325 12.5778 6.03372 11.8454 6.91549 11.1316C8.69256 9.69299 11.0771 8.4 13.65 8.4C16.223 8.4 18.6075 9.69299 20.3846 11.1316C21.2664 11.8454 21.9768 12.5778 22.4615 13.1656C22.7046 13.4604 22.8835 13.7099 22.9973 13.895C23.0219 13.935 23.0422 13.97 23.0588 14C23.0422 14.03 23.0219 14.065 22.9973 14.105C22.8835 14.2901 22.7046 14.5396 22.4615 14.8344C21.9768 15.4222 21.2664 16.1546 20.3846 16.8684C18.6075 18.307 16.223 19.6 13.65 19.6C11.0771 19.6 8.69256 18.307 6.91549 16.8684C6.03372 16.1546 5.32325 15.4222 4.83856 14.8344C4.59551 14.5396 4.41658 14.2901 4.30278 14.105ZM24.3891 13.5338C24.4317 13.6313 24.5 13.8049 24.5 14C24.5 14.1951 24.4317 14.3687 24.3891 14.4662C24.3371 14.5854 24.2679 14.7115 24.1899 14.8383C24.033 15.0935 23.8127 15.3963 23.5417 15.725C22.9983 16.3841 22.2212 17.1829 21.2655 17.9566C19.3676 19.493 16.6771 21 13.65 21C10.623 21 7.93254 19.493 6.03461 17.9566C5.07888 17.1829 4.30184 16.3841 3.75841 15.725C3.4874 15.3963 3.26711 15.0935 3.11021 14.8383C3.03223 14.7115 2.96304 14.5854 2.91098 14.4662C2.86844 14.3687 2.80005 14.1951 2.80005 14C2.80005 13.8049 2.86844 13.6313 2.91098 13.5338C2.96304 13.4146 3.03223 13.2885 3.11021 13.1617C3.26711 12.9065 3.4874 12.6037 3.75841 12.275C4.30185 11.6159 5.07888 10.8171 6.03461 10.0434C7.93254 8.50701 10.623 7 13.65 7C16.6771 7 19.3676 8.50701 21.2655 10.0434C22.2212 10.8171 22.9983 11.6159 23.5417 12.275C23.8127 12.6037 24.033 12.9065 24.1899 13.1617C24.2679 13.2885 24.3371 13.4146 24.3891 13.5338ZM17.15 14C17.15 15.933 15.583 17.5 13.65 17.5C11.7171 17.5 10.15 15.933 10.15 14C10.15 12.067 11.7171 10.5 13.65 10.5C15.583 10.5 17.15 12.067 17.15 14ZM15.75 14C15.75 15.1598 14.8098 16.1 13.65 16.1C12.4903 16.1 11.55 15.1598 11.55 14C11.55 12.8402 12.4903 11.9 13.65 11.9C14.8098 11.9 15.75 12.8402 15.75 14Z" fill="#B8C3D9"/>
</svg>
