<svg width="28" height="28" viewBox="0 0 28 28" fill="none" xmlns="http://www.w3.org/2000/svg">
<path fill-rule="evenodd" clip-rule="evenodd" d="M7.37457 9.06437C6.89384 9.37934 6.44564 9.71069 6.03461 10.0434C5.07888 10.8171 4.30185 11.6159 3.75841 12.275C3.4874 12.6037 3.26711 12.9065 3.11021 13.1617C3.03223 13.2885 2.96304 13.4146 2.91098 13.5338C2.86844 13.6313 2.80005 13.8049 2.80005 14C2.80005 14.1951 2.86844 14.3687 2.91098 14.4662C2.96304 14.5854 3.03223 14.7115 3.11021 14.8383C3.26711 15.0935 3.4874 15.3963 3.75841 15.725C4.30184 16.3841 5.07888 17.1829 6.03461 17.9566C7.93254 19.493 10.623 21 13.65 21C15.2946 21 16.8399 20.5552 18.2127 19.9025L17.1539 18.8436C16.0589 19.3065 14.8759 19.6 13.65 19.6C11.0771 19.6 8.69256 18.307 6.91549 16.8684C6.03372 16.1546 5.32325 15.4222 4.83856 14.8344C4.59551 14.5396 4.41658 14.2901 4.30278 14.105C4.27818 14.065 4.25788 14.03 4.24134 14C4.25788 13.97 4.27818 13.935 4.30278 13.895C4.41658 13.7099 4.59551 13.4604 4.83856 13.1656C5.32325 12.5778 6.03372 11.8454 6.91549 11.1316C7.36903 10.7644 7.86214 10.4067 8.38784 10.0776L7.37457 9.06437ZM10.5972 12.287C10.3125 12.7933 10.15 13.3777 10.15 14C10.15 15.933 11.7171 17.5 13.65 17.5C14.2723 17.5 14.8567 17.3376 15.3631 17.0529L14.3058 15.9956C14.0995 16.0633 13.879 16.1 13.65 16.1C12.4903 16.1 11.55 15.1598 11.55 14C11.55 13.771 11.5867 13.5506 11.6545 13.3443L10.5972 12.287ZM12.5199 12.2298L11.5159 11.2258C12.1066 10.7707 12.8467 10.5 13.65 10.5C15.583 10.5 17.15 12.067 17.15 14C17.15 14.8033 16.8794 15.5435 16.4243 16.1342L15.4203 15.1302C15.629 14.8039 15.75 14.4161 15.75 14C15.75 12.8402 14.8098 11.9 13.65 11.9C13.234 11.9 12.8461 12.021 12.5199 12.2298ZM18.475 18.1849C19.166 17.7876 19.8074 17.3357 20.3846 16.8684C21.2664 16.1546 21.9768 15.4222 22.4615 14.8344C22.7046 14.5396 22.8835 14.2901 22.9973 14.105C23.0219 14.065 23.0422 14.03 23.0588 14C23.0422 13.97 23.0219 13.935 22.9973 13.895C22.8835 13.7099 22.7046 13.4604 22.4615 13.1656C21.9768 12.5778 21.2664 11.8454 20.3846 11.1316C18.6075 9.69299 16.223 8.4 13.65 8.4C12.242 8.4 10.8903 8.78724 9.66378 9.37367L8.62074 8.33063C10.1061 7.55304 11.8163 7 13.65 7C16.6771 7 19.3676 8.50701 21.2655 10.0434C22.2212 10.8171 22.9983 11.6159 23.5417 12.275C23.8127 12.6037 24.033 12.9065 24.1899 13.1617C24.2679 13.2885 24.3371 13.4146 24.3891 13.5338C24.4317 13.6313 24.5 13.8049 24.5 14C24.5 14.1951 24.4317 14.3687 24.3891 14.4662C24.3371 14.5854 24.2679 14.7115 24.1899 14.8383C24.033 15.0935 23.8127 15.3963 23.5417 15.725C22.9983 16.3841 22.2212 17.1829 21.2655 17.9566C20.7346 18.3863 20.1417 18.8138 19.4967 19.2066L18.475 18.1849Z" fill="#B8C3D9"/>
<path d="M3.29502 5.68479C3.02166 5.41143 3.02166 4.96821 3.29502 4.69484C3.56839 4.42148 4.01161 4.42148 4.28497 4.69484L22.8466 23.2565C23.12 23.5299 23.12 23.9731 22.8466 24.2464C22.5733 24.5198 22.13 24.5198 21.8567 24.2464L3.29502 5.68479Z" fill="#B8C3D9"/>
</svg>
